<?xml version="1.0" encoding="UTF-8"?>
<svg width="512" height="512" viewBox="0 0 512 512" xmlns="http://www.w3.org/2000/svg">
<!-- Rounded square background -->
<rect width="512" height="512" rx="112" fill="#0f1117"/>

<!-- Book back cover -->
<rect x="72" y="60" width="300" height="392" rx="16" fill="#1a1f2e" stroke="#2d3550" stroke-width="5"/>

<!-- Book spine -->
<rect x="72" y="60" width="42" height="392" rx="10" fill="#141826" stroke="#2d3550" stroke-width="3"/>
<line x1="106" y1="68" x2="106" y2="444" stroke="#3a4060" stroke-width="1.5"/>

<!-- Pages -->
<rect x="114" y="55" width="258" height="392" rx="6" fill="#e0d8c8"/>
<rect x="116" y="53" width="258" height="392" rx="6" fill="#ede6d6"/>
<rect x="118" y="50" width="258" height="392" rx="6" fill="#f5f0e8"/>

<!-- Page lines -->
<line x1="142" y1="96" x2="358" y2="96" stroke="#c8bfaa" stroke-width="2.5" opacity="0.5"/>
<line x1="142" y1="128" x2="358" y2="128" stroke="#c8bfaa" stroke-width="2.5" opacity="0.5"/>
<line x1="142" y1="160" x2="350" y2="160" stroke="#c8bfaa" stroke-width="2.5" opacity="0.5"/>
<line x1="142" y1="192" x2="358" y2="192" stroke="#c8bfaa" stroke-width="2.5" opacity="0.5"/>
<line x1="142" y1="224" x2="344" y2="224" stroke="#c8bfaa" stroke-width="2.5" opacity="0.5"/>
<line x1="142" y1="256" x2="358" y2="256" stroke="#c8bfaa" stroke-width="2.5" opacity="0.5"/>
<line x1="142" y1="288" x2="350" y2="288" stroke="#c8bfaa" stroke-width="2.5" opacity="0.5"/>
<line x1="142" y1="320" x2="358" y2="320" stroke="#c8bfaa" stroke-width="2.5" opacity="0.5"/>
<line x1="142" y1="352" x2="344" y2="352" stroke="#c8bfaa" stroke-width="2.5" opacity="0.5"/>
<line x1="142" y1="384" x2="358" y2="384" stroke="#c8bfaa" stroke-width="2.5" opacity="0.5"/>
<line x1="142" y1="416" x2="350" y2="416" stroke="#c8bfaa" stroke-width="2.5" opacity="0.5"/>

<!-- Git graph — main branch (green) -->
<line x1="178" y1="72" x2="178" y2="440" stroke="#4ade80" stroke-width="8" stroke-linecap="round"/>

<!-- Commits on main -->
<circle cx="178" cy="96" r="14" fill="#4ade80"/>
<circle cx="178" cy="160" r="14" fill="#4ade80"/>
<circle cx="178" cy="272" r="14" fill="#4ade80"/>
<circle cx="178" cy="368" r="14" fill="#4ade80"/>
<circle cx="178" cy="430" r="14" fill="#4ade80"/>

<!-- Feature branch (blue) -->
<path d="M178 160 C222 160 222 186 222 208" stroke="#60a5fa" stroke-width="7" fill="none" stroke-linecap="round"/>
<line x1="222" y1="208" x2="222" y2="250" stroke="#60a5fa" stroke-width="7" stroke-linecap="round"/>
<path d="M222 250 C222 272 200 272 178 272" stroke="#60a5fa" stroke-width="7" fill="none" stroke-linecap="round"/>
<circle cx="222" cy="218" r="12" fill="#60a5fa"/>
<circle cx="222" cy="244" r="12" fill="#60a5fa"/>

<!-- Merge ring -->
<circle cx="178" cy="272" r="22" fill="none" stroke="#a78bfa" stroke-width="6" opacity="0.9"/>

<!-- Hotfix branch (pink) -->
<path d="M178 272 C262 272 262 300 262 316" stroke="#f472b6" stroke-width="6" fill="none" stroke-linecap="round"/>
<line x1="262" y1="316" x2="262" y2="352" stroke="#f472b6" stroke-width="6" stroke-linecap="round"/>
<path d="M262 352 C262 368 220 368 178 368" stroke="#f472b6" stroke-width="6" fill="none" stroke-linecap="round" opacity="0.7"/>
<circle cx="262" cy="334" r="10" fill="#f472b6"/>

<!-- Quill pen — upper right of book page -->
<path d="M298 56 C356 30 402 56 412 92 C388 78 354 80 324 108 C348 88 372 96 374 124 C348 106 316 112 296 144 C302 116 298 84 298 56Z" fill="#ede8dd" stroke="#c8bfaa" stroke-width="1.5"/>
<!-- Vane detail lines -->
<path d="M305 68 C338 55 370 65 388 84" fill="none" stroke="#c8bfaa" stroke-width="1.2" opacity="0.6"/>
<path d="M312 90 C342 76 368 84 380 104" fill="none" stroke="#c8bfaa" stroke-width="1.2" opacity="0.6"/>
<!-- Shaft -->
<path d="M296 144 L278 200 L284 200 L276 240 L290 196 L298 202Z" fill="#1a1a2e"/>
<circle cx="277" cy="241" r="7" fill="#1a1a2e"/>

<!-- Ink dot glow -->
<circle cx="277" cy="241" r="12" fill="#1a1a2e" opacity="0.2"/>

<!-- Corner sparkles -->
<circle cx="430" cy="68" r="5" fill="#f59e0b" opacity="0.7"/>
<circle cx="446" cy="90" r="3.5" fill="#60a5fa" opacity="0.6"/>
<circle cx="82" cy="46" r="4" fill="#4ade80" opacity="0.6"/>
<circle cx="68" cy="68" r="2.5" fill="#f472b6" opacity="0.5"/>
</svg>
