<svg width="80" height="80" viewBox="0 0 80 80" xmlns="http://www.w3.org/2000/svg" role="img" aria-label="Git History Storyteller favicon">
  <defs>
    <linearGradient id="bg" x1="10" y1="8" x2="70" y2="72" gradientUnits="userSpaceOnUse">
      <stop offset="0" stop-color="#12161D"/>
      <stop offset="1" stop-color="#1B2330"/>
    </linearGradient>
    <linearGradient id="branchA" x1="20" y1="20" x2="60" y2="60" gradientUnits="userSpaceOnUse">
      <stop offset="0" stop-color="#5DCAA5"/>
      <stop offset="1" stop-color="#49B7DA"/>
    </linearGradient>
    <linearGradient id="branchB" x1="60" y1="18" x2="22" y2="62" gradientUnits="userSpaceOnUse">
      <stop offset="0" stop-color="#7F77DD"/>
      <stop offset="1" stop-color="#AF74E6"/>
    </linearGradient>
  </defs>

  <rect width="80" height="80" rx="18" fill="url(#bg)"/>
  <rect x="6" y="6" width="68" height="68" rx="14" fill="none" stroke="#2C3442" stroke-width="1"/>

  <path d="M20 58 L40 40 L57 50" fill="none" stroke="url(#branchA)" stroke-width="4" stroke-linecap="round" stroke-linejoin="round"/>
  <path d="M24 26 L40 40 L58 22" fill="none" stroke="url(#branchB)" stroke-width="4" stroke-linecap="round" stroke-linejoin="round"/>

  <circle cx="24" cy="26" r="5" fill="#7F77DD"/>
  <circle cx="20" cy="58" r="5" fill="#5DCAA5"/>
  <circle cx="40" cy="40" r="6.5" fill="#EF9F27"/>
  <circle cx="57" cy="50" r="5" fill="#49B7DA"/>
  <circle cx="58" cy="22" r="5" fill="#AF74E6"/>

  <path d="M33 40 C35 35, 43 34, 46 39 C48 43, 45 47, 40 47 C36 47, 33 44, 33 40 Z" fill="#FAD38C" opacity="0.85"/>
</svg>